<?xml version="1.0" encoding="UTF-8"?>
<svg xmlns="http://www.w3.org/2000/svg" id="Layer_1" data-name="Layer 1" viewBox="0 0 24 24">
  <path d="m14.5,21c2.481,0,4.5-2.019,4.5-4.5V7.157c0-1.202-.468-2.332-1.318-3.182l-2.657-2.657c-.85-.85-1.979-1.318-3.182-1.318h-5.343C4.019,0,2,2.019,2,4.5v12c0,2.481,2.019,4.5,4.5,4.5h8Zm2.475-16.318c.377.377.645.829.816,1.318h-3.791c-.551,0-1-.449-1-1V1.209c.489.171.941.439,1.318.816l2.657,2.657ZM3,16.5V4.5c0-1.93,1.57-3.5,3.5-3.5h5.343c.053,0,.104.013.157.015v3.985c0,1.103.897,2,2,2h3.985c.002.053.015.104.015.157v9.343c0,1.93-1.57,3.5-3.5,3.5H6.5c-1.93,0-3.5-1.57-3.5-3.5Zm19-8v11c0,2.481-2.019,4.5-4.5,4.5H5.5c-.276,0-.5-.224-.5-.5s.224-.5.5-.5h12c1.93,0,3.5-1.57,3.5-3.5v-11c0-.276.224-.5.5-.5s.5.224.5.5Z"/>
</svg>
